<svg width="41" height="41" viewBox="0 0 41 41" fill="none" xmlns="http://www.w3.org/2000/svg">
<path d="M19.2095 20.3265L18.0175 25.1565C19.4895 25.5265 24.0255 26.9985 24.6975 24.2745C25.3975 21.4325 20.6795 20.6965 19.2095 20.3265ZM20.8355 13.7325L19.7555 18.1145C20.9795 18.4225 24.7555 19.6825 25.3675 17.2045C26.0035 14.6185 22.0595 14.0425 20.8355 13.7325ZM20.9375 0.0925293C16.9819 0.0925293 13.1151 1.26551 9.8261 3.46314C6.53712 5.66077 3.97367 8.78434 2.45992 12.4389C0.946166 16.0934 0.550099 20.1147 1.3218 23.9943C2.09351 27.874 3.99832 31.4376 6.79537 34.2347C9.59242 37.0317 13.1561 38.9365 17.0357 39.7082C20.9153 40.4799 24.9367 40.0839 28.5912 38.5701C32.2457 37.0564 35.3693 34.4929 37.5669 31.2039C39.7645 27.915 40.9375 24.0482 40.9375 20.0925C40.9375 17.4661 40.4202 14.8654 39.4151 12.4389C38.41 10.0123 36.9368 7.80757 35.0796 5.95039C33.2225 4.09322 31.0177 2.62003 28.5912 1.61494C26.1647 0.609845 23.5639 0.0925293 20.9375 0.0925293ZM29.6535 17.2425C29.6125 18.0101 29.3184 18.7425 28.8173 19.3254C28.3162 19.9082 27.6362 20.3088 26.8835 20.4645C27.378 20.6658 27.8255 20.9674 28.1977 21.3502C28.5699 21.733 28.8588 22.1888 29.0461 22.6888C29.2334 23.1888 29.3152 23.7222 29.2862 24.2553C29.2571 24.7885 29.118 25.3098 28.8775 25.7865C27.7055 29.1705 24.9235 29.4565 21.2235 28.7485L20.3255 32.3885L18.1555 31.8405L19.0415 28.2505C18.4815 28.1105 17.9055 27.9592 17.3135 27.7965L16.4235 31.4045L14.2555 30.8585L15.1555 27.2105C14.6475 27.0805 14.1335 26.9405 13.6075 26.8085L10.7835 26.0965L11.8615 23.5845C11.8615 23.5845 13.4615 24.0145 13.4375 23.9825C13.537 24.0147 13.6419 24.0267 13.7461 24.0179C13.8504 24.0091 13.9518 23.9796 14.0445 23.9312C14.1372 23.8828 14.2193 23.8165 14.2861 23.736C14.3529 23.6555 14.403 23.5626 14.4335 23.4625L16.8675 13.5845C16.8987 13.2822 16.8106 12.9795 16.6219 12.7412C16.4333 12.5028 16.159 12.3476 15.8575 12.3085C15.8895 12.2865 14.2795 11.9125 14.2795 11.9125L14.8595 9.56853L17.8495 10.3245L17.8475 10.3365C18.2982 10.4472 18.7602 10.5565 19.2335 10.6645L20.1215 7.06253L22.2915 7.60853L21.4195 11.1405C22.0015 11.2765 22.5875 11.4105 23.1595 11.5545L24.0235 8.04453L26.1935 8.59253L25.3035 12.1965C28.0435 13.1505 30.0475 14.5825 29.6535 17.2425Z" fill="#008EFF"/>
</svg>
