<svg width="42" height="36" viewBox="0 0 42 36" fill="none" xmlns="http://www.w3.org/2000/svg">
<path fill-rule="evenodd" clip-rule="evenodd" d="M38.3878 10.1006C38.2744 10.094 38.1538 10.0913 38.0258 10.0926H32.9758C28.8398 10.0926 25.3018 13.3486 25.3018 17.5926C25.3018 21.8366 28.8418 25.0926 32.9758 25.0926H38.0258C38.1538 25.094 38.2751 25.0913 38.3898 25.0846C39.2398 25.0334 40.0422 24.6748 40.6475 24.0758C41.2528 23.4768 41.6197 22.6781 41.6798 21.8286C41.6878 21.7086 41.6878 21.5786 41.6878 21.4586V13.7266C41.6878 13.6066 41.6878 13.4766 41.6798 13.3566C41.6197 12.5071 41.2528 11.7085 40.6475 11.1095C40.0422 10.5104 39.2378 10.1519 38.3878 10.1006ZM32.5338 19.5926C33.5978 19.5926 34.4598 18.6966 34.4598 17.5926C34.4598 16.4886 33.5978 15.5926 32.5338 15.5926C31.4678 15.5926 30.6058 16.4886 30.6058 17.5926C30.6058 18.6966 31.4678 19.5926 32.5338 19.5926Z" fill="#F23936"/>
<path fill-rule="evenodd" clip-rule="evenodd" d="M38.0235 28.0925C38.0926 28.0898 38.1615 28.1033 38.2244 28.1321C38.2873 28.161 38.3425 28.2042 38.3856 28.2584C38.4286 28.3125 38.4583 28.3761 38.4722 28.4439C38.4861 28.5117 38.4838 28.5818 38.4655 28.6485C38.0655 30.0725 37.4275 31.2885 36.4055 32.3085C34.9075 33.8085 33.0095 34.4705 30.6655 34.7865C28.3855 35.0925 25.4755 35.0925 21.7995 35.0925H17.5755C13.8995 35.0925 10.9875 35.0925 8.7095 34.7865C6.3655 34.4705 4.4675 33.8065 2.9695 32.3105C1.4735 30.8125 0.8095 28.9145 0.4935 26.5705C0.1875 24.2905 0.1875 21.3805 0.1875 17.7045V17.4805C0.1875 13.8045 0.1875 10.8925 0.4935 8.61253C0.8095 6.26853 1.4735 4.37053 2.9695 2.87253C4.4675 1.37653 6.3655 0.712529 8.7095 0.396529C10.9895 0.0925292 13.8995 0.0925293 17.5755 0.0925293H21.7995C25.4755 0.0925293 28.3875 0.0925295 30.6655 0.39853C33.0095 0.71453 34.9075 1.37853 36.4055 2.87453C37.4275 3.89853 38.0655 5.11253 38.4655 6.53653C38.4838 6.60327 38.4861 6.67338 38.4722 6.74117C38.4583 6.80896 38.4286 6.87252 38.3856 6.92669C38.3425 6.98086 38.2873 7.02411 38.2244 7.05292C38.1615 7.08174 38.0926 7.09531 38.0235 7.09253H32.9755C27.3015 7.09253 22.3015 11.5725 22.3015 17.5925C22.3015 23.6125 27.3015 28.0925 32.9755 28.0925H38.0235ZM7.6875 8.09253C7.28968 8.09253 6.90814 8.25056 6.62684 8.53187C6.34554 8.81317 6.1875 9.19471 6.1875 9.59253C6.1875 9.99035 6.34554 10.3719 6.62684 10.6532C6.90814 10.9345 7.28968 11.0925 7.6875 11.0925H15.6875C16.0853 11.0925 16.4669 10.9345 16.7482 10.6532C17.0295 10.3719 17.1875 9.99035 17.1875 9.59253C17.1875 9.19471 17.0295 8.81317 16.7482 8.53187C16.4669 8.25056 16.0853 8.09253 15.6875 8.09253H7.6875Z" fill="#F23936"/>
</svg>
