<svg width="21" height="22" viewBox="0 0 21 22" fill="none" xmlns="http://www.w3.org/2000/svg">
<path d="M18.009 10.5942L4.15268 2.83464C4.03611 2.76937 3.90239 2.74122 3.7694 2.75397C3.6364 2.76672 3.51047 2.81976 3.40843 2.906C3.30639 2.99224 3.2331 3.10757 3.19836 3.23658C3.16362 3.36559 3.16908 3.50213 3.21401 3.62795L5.82762 10.946C5.87859 11.0888 5.87859 11.2447 5.82762 11.3875L3.21401 18.7056C3.16908 18.8314 3.16362 18.9679 3.19836 19.0969C3.2331 19.2259 3.30639 19.3413 3.40843 19.4275C3.51047 19.5137 3.6364 19.5668 3.7694 19.5795C3.90239 19.5923 4.03611 19.5641 4.15268 19.4989L18.009 11.7393C18.1108 11.6823 18.1955 11.5992 18.2545 11.4986C18.3135 11.398 18.3446 11.2834 18.3446 11.1668C18.3446 11.0501 18.3135 10.9356 18.2545 10.8349C18.1955 10.7343 18.1108 10.6512 18.009 10.5942V10.5942Z" stroke="white" stroke-width="1.3125" stroke-linecap="round" stroke-linejoin="round"/>
<path d="M5.90625 11.1667H11.1563" stroke="white" stroke-width="1.3125" stroke-linecap="round" stroke-linejoin="round"/>
</svg>
