<svg width="49" height="30" viewBox="0 0 49 30" fill="none" xmlns="http://www.w3.org/2000/svg">
<path fill-rule="evenodd" clip-rule="evenodd" d="M45.7375 26.2926V3.89263H4.1375V26.2926H45.7375ZM48.9375 3.89263V26.2926C48.9375 27.1413 48.6004 27.9552 48.0002 28.5554C47.4001 29.1555 46.5862 29.4926 45.7375 29.4926H4.1375C3.28881 29.4926 2.47487 29.1555 1.87476 28.5554C1.27464 27.9552 0.9375 27.1413 0.9375 26.2926V3.89263C0.9375 3.04393 1.27464 2.23 1.87476 1.62989C2.47487 1.02977 3.28881 0.692627 4.1375 0.692627H45.7375C46.5862 0.692627 47.4001 1.02977 48.0002 1.62989C48.6004 2.23 48.9375 3.04393 48.9375 3.89263ZM7.3375 7.89263C7.3375 7.68045 7.42179 7.47697 7.57182 7.32694C7.72184 7.17691 7.92533 7.09263 8.1375 7.09263H19.3375C19.5497 7.09263 19.7532 7.17691 19.9032 7.32694C20.0532 7.47697 20.1375 7.68045 20.1375 7.89263V22.2926C20.1375 22.5048 20.0532 22.7083 19.9032 22.8583C19.7532 23.0083 19.5497 23.0926 19.3375 23.0926H8.1375C7.92533 23.0926 7.72184 23.0083 7.57182 22.8583C7.42179 22.7083 7.3375 22.5048 7.3375 22.2926V7.89263ZM24.9375 13.4926C24.5132 13.4926 24.1062 13.6612 23.8061 13.9613C23.5061 14.2613 23.3375 14.6683 23.3375 15.0926C23.3375 15.517 23.5061 15.9239 23.8061 16.224C24.1062 16.5241 24.5132 16.6926 24.9375 16.6926H34.5375C34.9618 16.6926 35.3688 16.5241 35.6689 16.224C35.9689 15.9239 36.1375 15.517 36.1375 15.0926C36.1375 14.6683 35.9689 14.2613 35.6689 13.9613C35.3688 13.6612 34.9618 13.4926 34.5375 13.4926H24.9375ZM23.3375 21.4926C23.3375 21.0683 23.5061 20.6613 23.8061 20.3613C24.1062 20.0612 24.5132 19.8926 24.9375 19.8926H40.9375C41.3618 19.8926 41.7688 20.0612 42.0689 20.3613C42.3689 20.6613 42.5375 21.0683 42.5375 21.4926C42.5375 21.917 42.3689 22.3239 42.0689 22.624C41.7688 22.9241 41.3618 23.0926 40.9375 23.0926H24.9375C24.5132 23.0926 24.1062 22.9241 23.8061 22.624C23.5061 22.3239 23.3375 21.917 23.3375 21.4926ZM24.9375 7.09263C24.5132 7.09263 24.1062 7.2612 23.8061 7.56126C23.5061 7.86131 23.3375 8.26828 23.3375 8.69263C23.3375 9.11697 23.5061 9.52394 23.8061 9.824C24.1062 10.1241 24.5132 10.2926 24.9375 10.2926H37.7375C38.1618 10.2926 38.5688 10.1241 38.8689 9.824C39.1689 9.52394 39.3375 9.11697 39.3375 8.69263C39.3375 8.26828 39.1689 7.86131 38.8689 7.56126C38.5688 7.2612 38.1618 7.09263 37.7375 7.09263H24.9375Z" fill="#14B082"/>
</svg>
